<svg xmlns="http://www.w3.org/2000/svg" viewBox="0 0 512 512">
  <defs>
    <linearGradient id="ocean" x1="0%" y1="0%" x2="100%" y2="100%">
      <stop offset="0%" style="stop-color:#006994;stop-opacity:1" />
      <stop offset="100%" style="stop-color:#003366;stop-opacity:1" />
    </linearGradient>
    <filter id="shadow" x="-20%" y="-20%" width="140%" height="140%">
      <feDropShadow dx="2" dy="4" stdDeviation="3" flood-color="#000" flood-opacity="0.3"/>
    </filter>
  </defs>
  
  <!-- Background Circle -->
  <circle cx="256" cy="256" r="240" fill="url(#ocean)" stroke="#ffffff" stroke-width="10"/>
  
  <!-- Stylized Ship/Anchor Icon -->
  <g transform="translate(106, 106) scale(0.6)" fill="#ffffff" filter="url(#shadow)">
    <path d="M256,32 C264.8,32 272,39.2 272,48 V128 C360.3,128 432,199.7 432,288 C432,376.3 360.3,448 272,448 V464 C272,472.8 264.8,480 256,480 C247.2,480 240,472.8 240,464 V448 C151.7,448 80,376.3 80,288 C80,199.7 151.7,128 240,128 V48 C240,39.2 247.2,32 256,32 Z M256,160 C185.3,160 128,217.3 128,288 C128,358.7 185.3,416 256,416 C326.7,416 384,358.7 384,288 C384,217.3 326.7,160 256,160 Z M256,208 C300.2,208 336,243.8 336,288 C336,332.2 300.2,368 256,368 C211.8,368 176,332.2 176,288 C176,243.8 211.8,208 256,208 Z"/>
  </g>
  
  <!-- Radar Sweep Effect (Subtle) -->
  <path d="M256,256 L496,256 A240,240 0 0,1 256,496 Z" fill="#ffffff" fill-opacity="0.1">
    <animateTransform attributeName="transform" type="rotate" from="0 256 256" to="360 256 256" dur="4s" repeatCount="indefinite"/>
  </path>
</svg>
